
<svg xmlns="http://www.w3.org/2000/svg" version="1.1" width="1052px" height="170px" style="shape-rendering:geometricPrecision; text-rendering:geometricPrecision; image-rendering:optimizeQuality; fill-rule:evenodd; clip-rule:evenodd" xmlns:xlink="http://www.w3.org/1999/xlink">
<g><path style="opacity:0.965" fill="#080704" d="M 75.5,-0.5 C 84.1667,-0.5 92.8333,-0.5 101.5,-0.5C 101.5,12.5 101.5,25.5 101.5,38.5C 92.8333,38.5 84.1667,38.5 75.5,38.5C 75.5,25.5 75.5,12.5 75.5,-0.5 Z"/></g>
<g><path style="opacity:0.972" fill="#fada1a" d="M 101.5,-0.5 C 136.5,-0.5 171.5,-0.5 206.5,-0.5C 206.5,12.5 206.5,25.5 206.5,38.5C 171.5,38.5 136.5,38.5 101.5,38.5C 101.5,25.5 101.5,12.5 101.5,-0.5 Z"/></g>
<g><path style="opacity:0.968" fill="#000000" d="M 1051.5,109.5 C 1051.5,115.167 1051.5,120.833 1051.5,126.5C 1047.55,145.632 1036.21,158.465 1017.5,165C 1010.46,166.945 1003.46,168.445 996.5,169.5C 990.167,169.5 983.833,169.5 977.5,169.5C 958.446,167.974 942.113,160.474 928.5,147C 935.667,139.833 942.833,132.667 950,125.5C 966.799,138.831 985.633,142.664 1006.5,137C 1018.73,130.721 1021.9,121.221 1016,108.5C 1013.44,105.469 1010.27,103.302 1006.5,102C 992.04,99.9821 977.706,97.3154 963.5,94C 940.766,83.898 931.599,66.398 936,41.5C 939.935,20.8976 952.102,8.0643 972.5,3C 993.551,-1.84068 1013.88,0.159325 1033.5,9C 1038.45,12.2853 1043.12,15.952 1047.5,20C 1040.83,26.6667 1034.17,33.3333 1027.5,40C 1024.91,40.4493 1022.91,39.4493 1021.5,37C 1006.59,28.4283 991.26,27.4283 975.5,34C 965.354,43.4443 965.021,53.111 974.5,63C 976.5,64 978.5,65 980.5,66C 993.506,68.2512 1006.51,70.5846 1019.5,73C 1038.26,78.251 1048.93,90.4177 1051.5,109.5 Z"/></g>
<g><path style="opacity:0.97" fill="#000000" d="M 298.5,1.5 C 309.5,1.5 320.5,1.5 331.5,1.5C 331.333,24.8357 331.5,48.169 332,71.5C 351.212,48.6233 370.045,25.4567 388.5,2C 401.846,1.16729 415.179,1.33396 428.5,2.5C 410.619,24.4254 392.619,46.2588 374.5,68C 391.207,96.5824 408.041,125.082 425,153.5C 444.189,103.1 462.689,52.4329 480.5,1.5C 489.525,1.16849 498.525,1.50182 507.5,2.5C 527.708,57.7923 547.708,113.126 567.5,168.5C 555.833,168.5 544.167,168.5 532.5,168.5C 529.5,158.5 526.5,148.5 523.5,138.5C 504.155,138.167 484.822,138.5 465.5,139.5C 462.364,148.909 459.03,158.243 455.5,167.5C 435.175,168.666 414.842,168.833 394.5,168C 380.207,143.248 366.04,118.415 352,93.5C 345.333,101.5 338.667,109.5 332,117.5C 331.5,134.497 331.333,151.497 331.5,168.5C 320.5,168.5 309.5,168.5 298.5,168.5C 298.5,112.833 298.5,57.1667 298.5,1.5 Z M 494.5,53.5 C 501.437,72.1384 508.104,90.9717 514.5,110C 501.504,110.5 488.504,110.667 475.5,110.5C 481.632,91.4379 487.965,72.4379 494.5,53.5 Z"/></g>
<g><path style="opacity:0.974" fill="#000000" d="M 547.5,1.5 C 587.167,1.5 626.833,1.5 666.5,1.5C 666.5,11.5 666.5,21.5 666.5,31.5C 652.167,31.5 637.833,31.5 623.5,31.5C 623.5,77.1667 623.5,122.833 623.5,168.5C 612.5,168.5 601.5,168.5 590.5,168.5C 590.5,122.833 590.5,77.1667 590.5,31.5C 576.167,31.5 561.833,31.5 547.5,31.5C 547.5,21.5 547.5,11.5 547.5,1.5 Z"/></g>
<g><path style="opacity:0.975" fill="#000000" d="M 678.5,1.5 C 704.531,1.07656 730.531,1.57656 756.5,3C 778.252,7.7528 791.752,20.9195 797,42.5C 800.678,67.8142 791.178,86.1475 768.5,97.5C 780.803,121.106 792.803,144.773 804.5,168.5C 791.829,168.667 779.162,168.5 766.5,168C 755.977,146.454 745.31,124.954 734.5,103.5C 726.862,102.503 719.196,102.169 711.5,102.5C 711.5,124.5 711.5,146.5 711.5,168.5C 700.5,168.5 689.5,168.5 678.5,168.5C 678.5,112.833 678.5,57.1667 678.5,1.5 Z M 711.5,31.5 C 724.561,31.0777 737.561,31.5777 750.5,33C 763.783,39.5074 767.616,49.6741 762,63.5C 757.951,69.8657 752.117,73.3657 744.5,74C 733.505,74.4998 722.505,74.6665 711.5,74.5C 711.5,60.1667 711.5,45.8333 711.5,31.5 Z"/></g>
<g><path style="opacity:0.966" fill="#000000" d="M 816.5,1.5 C 853.167,1.5 889.833,1.5 926.5,1.5C 926.5,11.5 926.5,21.5 926.5,31.5C 901.167,31.5 875.833,31.5 850.5,31.5C 850.5,44.1667 850.5,56.8333 850.5,69.5C 872.167,69.5 893.833,69.5 915.5,69.5C 915.5,79.1667 915.5,88.8333 915.5,98.5C 893.833,98.5 872.167,98.5 850.5,98.5C 850.5,111.833 850.5,125.167 850.5,138.5C 875.833,138.5 901.167,138.5 926.5,138.5C 926.5,148.5 926.5,158.5 926.5,168.5C 889.833,168.5 853.167,168.5 816.5,168.5C 816.5,112.833 816.5,57.1667 816.5,1.5 Z"/></g>
<g><path style="opacity:0.981" fill="#020202" d="M 138.5,60.5 C 138.5,73.5 138.5,86.5 138.5,99.5C 103.5,99.5 68.5,99.5 33.5,99.5C 33.5,86.5 33.5,73.5 33.5,60.5C 68.5,60.5 103.5,60.5 138.5,60.5 Z"/></g>
<g><path style="opacity:0.987" fill="#fada1a" d="M 138.5,60.5 C 173.5,60.5 208.5,60.5 243.5,60.5C 243.5,73.5 243.5,86.5 243.5,99.5C 208.5,99.5 173.5,99.5 138.5,99.5C 138.5,86.5 138.5,73.5 138.5,60.5 Z"/></g>
<g><path style="opacity:0.978" fill="#020202" d="M -0.5,130.5 C 54.8333,130.5 110.167,130.5 165.5,130.5C 165.5,143.5 165.5,156.5 165.5,169.5C 110.167,169.5 54.8333,169.5 -0.5,169.5C -0.5,156.5 -0.5,143.5 -0.5,130.5 Z"/></g>
<g><path style="opacity:0.979" fill="#fada1a" d="M 165.5,130.5 C 200.5,130.5 235.5,130.5 270.5,130.5C 270.5,143.5 270.5,156.5 270.5,169.5C 235.5,169.5 200.5,169.5 165.5,169.5C 165.5,156.5 165.5,143.5 165.5,130.5 Z"/></g>
</svg>
