<svg width="17" height="17" viewBox="0 0 17 17" fill="none" xmlns="http://www.w3.org/2000/svg">
<path d="M15.6055 12.7247L12.2242 10.369C11.7478 10.0397 11.0509 10.1591 10.7203 10.6223L9.84206 11.8852C9.78873 11.9612 9.74607 12.048 9.71762 12.1385C9.60385 12.2145 9.40118 12.3049 9.10252 12.3049C8.61186 12.3049 7.77277 12.0516 6.57812 10.8358C4.59416 8.81663 4.57993 7.93008 4.8466 7.24979C4.91059 7.22084 4.97104 7.18465 5.02437 7.14123L6.23679 6.20764C6.69901 5.85302 6.79145 5.16187 6.43946 4.66612L4.01461 1.30447C3.53106 0.631411 2.9373 0.555421 2.31509 1.09821C1.9382 1.43112 1.31244 2.22358 1.05644 2.69762C0.910665 2.95816 0.846666 3.22955 0.871555 3.50094C-0.269758 8.04587 3.10796 11.7983 4.17461 12.8477C7.09011 15.7173 9.79584 16.3035 11.5558 16.3035C12.5549 16.3035 13.2767 16.1225 13.5967 15.985C13.8455 15.9923 14.098 15.9271 14.3398 15.7788C14.802 15.5001 15.5593 14.8416 15.8686 14.4471C16.1246 14.1251 16.2277 13.8247 16.1815 13.528C16.1388 13.2277 15.9504 12.9635 15.6055 12.7247ZM15.314 13.9984C15.058 14.3241 14.3611 14.9356 13.9735 15.1672C13.8313 15.2541 13.6962 15.2903 13.5682 15.2758C13.4971 15.2686 13.4296 15.283 13.3656 15.3156C13.2162 15.3952 12.5656 15.6159 11.5523 15.6159C9.92384 15.6159 7.41011 15.0478 4.66527 12.3447C3.66973 11.3605 0.491117 7.82152 1.57554 3.62036C1.58621 3.57331 1.58976 3.52265 1.58265 3.47561C1.56488 3.33811 1.59332 3.2006 1.6751 3.05224C1.89198 2.6542 2.46797 1.91962 2.7773 1.64823C2.90885 1.53244 3.02974 1.4673 3.11152 1.4673C3.22529 1.4673 3.35684 1.61566 3.44573 1.7387L5.86702 5.10035C5.99147 5.27766 5.96658 5.51649 5.81013 5.6359L4.59416 6.57311C4.57282 6.59121 4.54438 6.60206 4.50171 6.61292C4.39505 6.63825 4.30616 6.71424 4.2635 6.81194C3.74795 7.95179 3.87239 9.10974 6.08035 11.3533C7.17544 12.4678 8.19587 13.0359 9.10608 13.0359C9.71762 13.0359 10.0981 12.779 10.2723 12.627C10.3363 12.5691 10.3789 12.4931 10.3896 12.4063C10.3967 12.3665 10.4074 12.3339 10.4252 12.3086L11.2998 11.0457C11.41 10.8901 11.6554 10.8539 11.8225 10.9697L15.2037 13.3218C15.3709 13.4376 15.4669 13.5461 15.4775 13.6366C15.4917 13.7198 15.4349 13.8501 15.314 13.9984Z" fill="#424242" stroke="#100F0F" stroke-width="0.5"/>
</svg>
