<svg xmlns="http://www.w3.org/2000/svg">

      <symbol viewBox="0 0 12 7" id="arrow-down">
        <g>
          <path d="M0.652692 1.54895L5.6846 6.11417C5.88955 6.29895 6.20235 6.29895 6.4073 6.11417L11.4392 1.54895" stroke="#808080" stroke-width="2" stroke-miterlimit="10" stroke-linejoin="round"/>
        </g>
      </symbol>

      <symbol viewBox="0 0 19 37" id="arrow-left">
        <g>
          <path d="M17.132 1.06645L2.78413 17.0008C2.20339 17.6498 2.20339 18.6404 2.78413 19.2894L17.132 35.2238" stroke="#14171C" stroke-width="3" stroke-miterlimit="10" stroke-linejoin="round"/>
        </g>
      </symbol>

      <symbol viewBox="0 0 20 20" id="icon-close">
        <g>
          <path d="M.293 18.291a1 1 0 101.414 1.414L10 11.413l8.292 8.292a1 1 0 101.414-1.414l-8.292-8.292 8.292-8.292A1 1 0 1018.291.293L9.999 8.585 1.707.293A1 1 0 10.293 1.707L8.585 10 .293 18.291z"/>
        </g>
      </symbol>

      <symbol viewBox="0 0 400 65" id="logo">
        <g id="svgg">
          <path id="path0" d="M39.341 8.086 L 39.360 16.171 59.268 16.164 C 78.849 16.157,79.182 16.151,79.505 15.828 C 79.822 15.511,79.833 15.239,79.833 7.750 L 79.833 0.000 59.577 -0.000 L 39.321 -0.000 39.341 8.086 M72.708 21.626 C 62.235 21.649,53.666 21.724,53.665 21.792 C 53.664 21.861,53.645 25.554,53.623 30.000 C 53.595 35.724,53.526 38.242,53.386 38.628 C 53.247 39.009,53.243 39.139,53.372 39.059 C 53.492 38.986,53.519 39.044,53.450 39.224 C 53.286 39.652,92.784 39.646,93.508 39.219 C 94.086 38.877,94.023 39.771,94.109 30.776 C 94.187 22.526,94.207 22.725,93.279 22.635 C 92.988 22.606,92.770 22.526,92.795 22.455 C 92.854 22.285,92.129 21.554,91.917 21.570 C 91.825 21.578,83.181 21.602,72.708 21.626 M64.000 56.749 L 64.000 64.833 84.208 64.833 L 104.417 64.833 104.398 56.938 C 104.388 52.596,104.328 48.959,104.265 48.857 C 104.182 48.723,98.632 48.671,84.075 48.668 L 64.000 48.664 64.000 56.749 " stroke="none" fill="#fcdc1c" fill-rule="evenodd">
          </path>
          <path id="path1" d="M38.507 7.292 C 38.514 14.520,38.652 16.802,39.042 16.153 C 39.243 15.817,38.946 0.000,38.738 0.000 C 38.535 0.000,38.501 1.074,38.507 7.292 M52.655 21.856 C 52.511 22.124,52.512 22.444,52.659 23.148 C 52.795 23.800,52.839 26.164,52.802 30.968 L 52.750 37.853 52.366 38.142 C 52.041 38.387,52.008 38.498,52.148 38.868 C 52.307 39.286,52.917 39.639,53.124 39.432 C 53.178 39.378,53.151 39.333,53.064 39.333 C 52.823 39.333,52.806 38.484,53.042 38.200 C 53.201 38.007,53.256 36.083,53.274 29.975 C 53.287 25.589,53.341 21.888,53.393 21.750 C 53.547 21.349,52.874 21.446,52.655 21.856 M62.833 56.750 C 62.833 64.722,62.838 64.833,63.167 64.833 C 63.495 64.833,63.500 64.722,63.500 56.750 C 63.500 48.778,63.495 48.667,63.167 48.667 C 62.838 48.667,62.833 48.778,62.833 56.750 " stroke="none" fill="#7c6c0e" fill-rule="evenodd">
          </path>
          <path id="path2" d="M37.669 6.958 C 37.671 14.185,37.765 15.336,38.405 15.976 C 38.766 16.338,38.825 16.189,38.659 15.333 C 38.580 14.921,38.511 11.302,38.507 7.292 L 38.500 0.000 38.083 0.000 L 37.667 0.000 37.669 6.958 M52.072 21.685 C 52.009 21.786,51.972 25.388,51.989 29.688 C 52.012 35.560,51.968 37.649,51.812 38.078 C 51.543 38.824,51.814 39.506,52.371 39.487 C 52.580 39.480,52.651 39.434,52.531 39.386 C 52.052 39.194,51.954 38.453,52.366 38.142 L 52.750 37.853 52.802 30.968 C 52.839 26.164,52.795 23.800,52.659 23.148 C 52.512 22.444,52.511 22.124,52.655 21.856 C 52.864 21.464,52.310 21.301,52.072 21.685 M62.322 48.792 C 62.110 51.043,62.299 64.833,62.542 64.833 C 62.815 64.833,62.833 64.337,62.833 56.750 C 62.833 49.676,62.802 48.667,62.583 48.667 C 62.446 48.667,62.328 48.723,62.322 48.792 " stroke="none" fill="#5c540c" fill-rule="evenodd">
          </path>
          <path id="path3" d="M28.040 8.042 L 28.083 16.083 33.314 16.127 C 37.881 16.166,38.519 16.141,38.343 15.928 C 37.760 15.226,37.671 14.033,37.669 6.958 L 37.667 0.000 32.832 -0.000 L 27.997 -0.000 28.040 8.042 M112.333 32.417 L 112.333 64.833 119.500 64.833 L 126.667 64.833 126.667 55.427 L 126.667 46.021 127.208 45.969 C 127.680 45.923,127.770 45.836,127.904 45.292 C 128.027 44.796,128.138 44.667,128.440 44.667 C 128.866 44.667,129.167 44.231,129.167 43.612 C 129.167 43.327,129.281 43.173,129.542 43.106 C 130.020 42.983,130.500 42.135,130.500 41.413 C 130.500 40.887,130.537 40.850,131.125 40.802 C 131.716 40.753,131.753 40.716,131.802 40.125 C 131.849 39.558,131.898 39.500,132.338 39.500 C 132.649 39.500,132.884 39.383,132.998 39.170 C 133.174 38.842,133.176 38.842,133.504 39.170 C 133.685 39.352,133.979 39.500,134.157 39.500 C 134.410 39.500,134.491 39.635,134.532 40.125 C 134.578 40.690,134.634 40.755,135.103 40.801 C 135.616 40.851,135.624 40.866,135.770 42.051 C 135.915 43.235,135.923 43.251,136.437 43.301 C 136.956 43.351,136.957 43.353,137.041 44.528 C 137.129 45.756,137.276 45.993,137.958 45.997 C 138.273 46.000,138.333 46.091,138.333 46.563 C 138.333 46.995,138.489 47.287,139.000 47.813 C 139.545 48.375,139.667 48.618,139.667 49.147 C 139.667 49.678,139.784 49.912,140.321 50.449 C 140.822 50.950,140.989 51.258,141.030 51.760 C 141.079 52.360,141.129 52.421,141.603 52.467 C 142.116 52.517,142.124 52.533,142.270 53.717 C 142.415 54.901,142.423 54.917,142.936 54.967 C 143.437 55.016,143.458 55.050,143.555 55.981 C 143.690 57.276,143.775 57.447,144.334 57.558 C 144.747 57.641,144.820 57.741,144.865 58.285 C 144.914 58.884,144.949 58.919,145.542 58.968 L 146.167 59.020 146.167 60.253 L 146.167 61.485 146.738 61.592 C 147.306 61.699,147.311 61.707,147.427 62.808 C 147.550 63.967,147.672 64.160,148.292 64.164 C 148.555 64.166,148.667 64.266,148.667 64.500 C 148.667 64.830,148.778 64.833,161.573 64.833 L 174.480 64.833 174.575 64.125 C 174.627 63.735,174.688 62.967,174.710 62.417 C 174.746 61.521,174.789 61.411,175.125 61.363 C 175.680 61.285,175.881 60.755,175.987 59.090 C 176.079 57.669,176.103 57.593,176.500 57.500 C 177.051 57.372,177.312 56.594,177.324 55.042 L 177.333 53.833 187.667 53.833 L 198.000 53.833 198.010 55.042 C 198.026 57.125,198.162 57.574,198.794 57.636 L 199.333 57.688 199.350 59.136 C 199.373 61.117,199.469 61.404,200.132 61.469 L 200.667 61.521 200.667 63.177 L 200.667 64.833 208.422 64.833 L 216.176 64.833 216.130 62.625 L 216.083 60.417 215.542 60.364 L 215.000 60.312 214.998 58.781 C 214.995 56.694,214.929 56.500,214.231 56.500 L 213.667 56.500 213.647 55.125 C 213.618 53.113,213.520 52.792,212.874 52.607 L 212.333 52.452 212.333 51.304 C 212.333 50.361,212.281 50.138,212.042 50.053 C 211.176 49.748,211.000 49.355,211.000 47.732 C 211.000 46.311,210.972 46.180,210.650 46.078 C 209.881 45.834,209.683 45.424,209.632 43.965 L 209.583 42.583 209.042 42.345 C 208.506 42.109,208.500 42.094,208.490 40.928 C 208.474 38.875,208.336 38.425,207.706 38.364 L 207.167 38.312 207.154 37.114 C 207.141 35.804,206.831 35.037,206.198 34.752 C 205.869 34.604,205.833 34.463,205.833 33.319 C 205.833 31.887,205.528 31.066,204.906 30.829 C 204.548 30.693,204.510 30.570,204.465 29.382 L 204.417 28.083 203.792 27.929 L 203.167 27.775 203.164 26.429 C 203.161 24.661,203.064 24.338,202.500 24.225 C 202.050 24.135,202.043 24.113,201.964 22.603 C 201.874 20.885,201.699 20.419,201.088 20.266 C 200.692 20.167,200.667 20.096,200.667 19.092 C 200.667 17.910,200.428 17.500,199.738 17.500 C 199.337 17.500,199.333 17.486,199.333 15.847 C 199.333 13.802,199.286 13.667,198.566 13.667 L 198.000 13.667 198.000 12.072 C 198.000 10.309,197.845 9.833,197.268 9.833 C 196.897 9.833,196.878 9.770,196.789 8.208 C 196.676 6.242,196.614 6.064,195.989 5.940 C 195.514 5.844,195.500 5.814,195.500 4.851 C 195.500 3.510,195.411 3.333,194.732 3.333 L 194.167 3.333 194.167 1.667 L 194.167 0.000 187.667 0.000 L 181.167 0.000 181.167 0.966 C 181.167 1.911,181.155 1.934,180.626 2.091 C 180.006 2.273,179.860 2.755,179.843 4.674 C 179.833 5.757,179.830 5.765,179.292 5.924 C 178.794 6.070,178.747 6.145,178.708 6.833 C 178.633 8.153,178.500 8.644,178.191 8.742 C 177.673 8.907,177.333 9.903,177.333 11.256 C 177.333 12.455,177.319 12.500,176.937 12.500 C 176.270 12.500,176.099 12.911,176.027 14.686 C 175.964 16.266,175.946 16.333,175.584 16.333 C 174.954 16.333,174.787 16.742,174.702 18.497 L 174.623 20.149 174.110 20.199 C 173.472 20.262,173.372 20.566,173.350 22.531 L 173.333 23.979 172.792 24.031 L 172.250 24.083 172.202 25.348 C 172.154 26.591,172.145 26.616,171.623 26.848 C 170.983 27.132,170.872 27.479,170.850 29.271 L 170.833 30.625 170.343 30.723 C 169.739 30.844,169.502 31.542,169.501 33.208 C 169.500 34.288,169.484 34.333,169.095 34.333 C 168.388 34.333,168.167 34.738,168.167 36.030 C 168.167 37.065,168.120 37.238,167.771 37.513 C 167.155 37.998,166.833 38.852,166.833 40.006 C 166.833 40.860,166.767 41.112,166.458 41.424 C 165.717 42.172,165.667 42.309,165.667 43.576 L 165.667 44.833 165.173 44.833 C 164.477 44.833,164.333 45.216,164.333 47.072 L 164.333 48.667 163.839 48.667 C 163.143 48.667,163.000 49.049,163.000 50.906 C 163.000 52.483,162.996 52.500,162.595 52.500 C 161.897 52.500,161.667 52.907,161.667 54.141 L 161.667 55.259 161.007 55.196 L 160.347 55.133 160.299 53.947 C 160.250 52.767,160.247 52.761,159.708 52.607 C 159.276 52.483,159.166 52.364,159.166 52.018 C 159.164 51.066,158.824 50.301,158.320 50.111 C 157.985 49.984,157.833 49.812,157.833 49.560 C 157.833 48.875,157.655 48.667,157.066 48.667 L 156.500 48.667 156.500 47.680 C 156.500 46.386,156.410 46.196,155.734 46.069 C 155.201 45.969,155.166 45.921,155.150 45.273 C 155.122 44.127,154.957 43.774,154.369 43.605 C 153.914 43.475,153.833 43.374,153.832 42.934 C 153.831 41.953,153.516 41.177,153.076 41.067 C 152.789 40.995,152.667 40.849,152.667 40.579 C 152.667 39.921,152.488 39.679,151.920 39.573 C 151.389 39.473,151.370 39.441,151.257 38.445 C 151.125 37.279,150.959 37.000,150.396 37.000 C 150.050 37.000,150.000 36.922,149.999 36.375 C 149.999 35.647,149.503 34.743,149.021 34.590 C 148.779 34.513,148.672 34.311,148.635 33.867 C 148.586 33.285,148.548 33.247,147.958 33.198 L 147.333 33.147 147.333 32.023 C 147.333 30.817,147.170 30.500,146.550 30.500 C 146.264 30.500,146.166 30.404,146.164 30.125 C 146.159 29.383,145.711 28.420,145.269 28.199 C 144.945 28.038,144.833 27.854,144.833 27.485 C 144.833 27.212,144.730 26.822,144.603 26.619 C 144.082 25.783,144.126 25.411,144.778 25.156 C 145.487 24.878,146.167 23.906,146.167 23.170 C 146.167 22.706,146.212 22.667,146.750 22.667 C 147.318 22.667,147.333 22.649,147.333 22.010 C 147.333 21.372,147.351 21.352,147.958 21.302 C 148.533 21.254,148.590 21.203,148.667 20.667 C 148.734 20.198,148.832 20.073,149.167 20.030 C 149.662 19.966,150.000 19.577,150.000 19.070 C 150.000 18.815,150.131 18.670,150.428 18.595 C 150.926 18.470,151.333 17.647,151.333 16.765 C 151.333 16.217,151.366 16.184,151.958 16.135 C 152.549 16.086,152.586 16.049,152.635 15.458 C 152.684 14.867,152.718 14.833,153.260 14.833 C 153.804 14.833,153.833 14.804,153.833 14.250 C 153.833 13.772,153.895 13.667,154.178 13.667 C 154.793 13.667,155.167 13.352,155.167 12.835 C 155.167 12.413,155.242 12.334,155.735 12.242 C 156.343 12.128,156.494 11.858,156.498 10.875 C 156.500 10.260,156.992 9.667,157.500 9.667 C 157.769 9.667,157.833 9.556,157.833 9.093 C 157.833 8.551,157.867 8.517,158.458 8.468 C 159.049 8.419,159.086 8.383,159.135 7.792 C 159.175 7.312,159.259 7.167,159.496 7.167 C 160.120 7.167,160.333 6.974,160.333 6.409 C 160.333 5.887,160.371 5.850,160.958 5.802 C 161.547 5.753,161.586 5.715,161.634 5.135 C 161.681 4.578,161.736 4.515,162.218 4.468 C 162.679 4.424,162.771 4.333,162.904 3.792 C 163.010 3.366,163.152 3.167,163.351 3.167 C 163.964 3.167,164.167 2.708,164.167 1.321 L 164.167 0.000 155.178 -0.000 L 146.190 -0.000 146.137 0.374 C 146.098 0.642,145.942 0.772,145.583 0.833 C 145.133 0.909,145.067 1.003,144.917 1.768 C 144.725 2.745,144.488 3.092,143.910 3.237 C 143.573 3.321,143.500 3.443,143.500 3.920 C 143.500 4.444,143.455 4.500,143.033 4.500 C 142.444 4.500,142.167 4.774,142.167 5.356 C 142.167 5.749,142.091 5.819,141.625 5.864 C 141.134 5.912,141.079 5.973,141.033 6.525 C 140.987 7.068,140.923 7.144,140.424 7.238 C 139.863 7.343,139.667 7.587,139.667 8.180 C 139.667 8.378,139.551 8.500,139.365 8.500 C 138.745 8.500,138.478 8.895,138.382 9.957 L 138.289 10.983 137.686 11.033 C 137.122 11.080,137.080 11.123,137.032 11.698 C 136.986 12.254,136.930 12.319,136.454 12.365 C 135.999 12.410,135.908 12.500,135.783 13.032 C 135.658 13.564,135.567 13.655,135.111 13.699 C 134.633 13.745,134.579 13.808,134.532 14.375 C 134.488 14.907,134.421 15.000,134.085 15.000 C 133.423 15.000,133.167 15.419,133.167 16.502 L 133.167 17.480 132.542 17.532 C 131.953 17.580,131.914 17.619,131.866 18.199 C 131.817 18.777,131.777 18.817,131.199 18.866 C 130.621 18.914,130.580 18.954,130.532 19.532 C 130.486 20.089,130.431 20.152,129.949 20.198 C 129.481 20.244,129.407 20.320,129.333 20.832 C 129.272 21.261,129.128 21.472,128.782 21.637 C 128.240 21.896,128.000 22.420,128.000 23.344 C 128.000 23.998,127.998 24.000,127.333 24.000 L 126.667 24.000 126.667 12.000 L 126.667 0.000 119.500 0.000 L 112.333 0.000 112.333 32.417 M207.167 6.732 C 207.167 12.717,207.196 13.476,207.430 13.566 C 207.575 13.621,211.063 13.667,215.180 13.667 L 222.667 13.667 222.669 38.625 C 222.670 52.352,222.717 63.865,222.774 64.208 L 222.877 64.833 230.404 64.833 L 237.931 64.833 238.132 64.081 C 238.285 63.509,238.333 57.369,238.333 38.498 L 238.333 13.667 245.820 13.667 C 249.937 13.667,253.425 13.621,253.570 13.566 C 253.804 13.476,253.833 12.717,253.833 6.732 L 253.833 0.000 230.500 0.000 L 207.167 0.000 207.167 6.732 M256.500 32.417 L 256.500 64.833 263.667 64.833 L 270.833 64.833 270.833 52.833 L 270.833 40.833 274.391 40.833 C 278.491 40.833,278.436 40.814,278.614 42.352 C 278.724 43.308,278.861 43.493,279.458 43.497 C 279.808 43.500,279.833 43.572,279.833 44.563 C 279.833 45.827,280.187 46.774,280.755 47.032 C 281.086 47.183,281.167 47.342,281.167 47.842 C 281.167 48.498,281.355 48.667,282.090 48.667 C 282.465 48.667,282.488 48.728,282.534 49.875 L 282.583 51.083 283.208 51.135 L 283.833 51.187 283.833 52.583 C 283.833 54.225,284.007 54.787,284.558 54.925 C 284.872 55.004,284.985 55.171,285.066 55.680 C 285.133 56.101,285.259 56.333,285.419 56.333 C 285.994 56.333,286.278 56.917,286.386 58.327 C 286.502 59.828,286.665 60.167,287.270 60.167 C 287.618 60.167,287.667 60.244,287.667 60.796 C 287.667 61.423,288.398 62.500,288.824 62.500 C 288.931 62.500,289.000 62.958,289.000 63.667 L 289.000 64.833 297.422 64.833 L 305.843 64.833 305.797 62.625 L 305.750 60.417 305.125 60.365 L 304.500 60.313 304.500 59.162 C 304.500 57.941,304.320 57.667,303.518 57.667 C 303.216 57.667,303.176 57.544,303.132 56.458 L 303.083 55.250 302.560 55.199 L 302.037 55.148 301.971 53.981 C 301.901 52.752,301.747 52.507,301.042 52.503 C 300.708 52.500,300.665 52.412,300.650 51.708 C 300.623 50.402,300.478 50.091,299.868 50.031 C 299.337 49.979,299.333 49.972,299.333 49.062 C 299.333 47.929,299.146 47.559,298.501 47.417 C 298.069 47.322,298.000 47.232,298.000 46.762 C 298.000 45.884,297.680 45.176,297.233 45.064 C 296.905 44.982,296.832 44.855,296.824 44.357 C 296.801 42.933,296.615 42.438,296.040 42.273 C 295.603 42.148,295.500 42.033,295.500 41.668 C 295.500 41.420,295.350 41.045,295.167 40.833 C 294.983 40.622,294.833 40.391,294.833 40.319 C 294.833 40.248,294.694 40.145,294.524 40.091 C 294.266 40.009,294.198 39.764,294.121 38.640 C 294.062 37.781,293.947 37.236,293.806 37.146 C 293.665 37.057,293.863 37.004,294.342 37.003 C 295.218 37.000,295.500 36.788,295.500 36.133 C 295.500 35.732,295.566 35.667,295.974 35.667 C 296.636 35.667,297.489 35.206,297.705 34.732 C 297.821 34.477,298.027 34.333,298.277 34.333 C 298.778 34.333,299.333 33.778,299.333 33.277 C 299.333 33.027,299.477 32.821,299.732 32.705 C 300.113 32.532,300.667 31.669,300.667 31.250 C 300.667 30.977,301.220 30.500,301.537 30.500 C 301.838 30.500,302.000 30.162,302.001 29.528 C 302.002 29.214,302.142 29.004,302.476 28.814 C 303.156 28.427,303.167 28.294,303.167 19.921 C 303.167 11.902,303.123 11.413,302.400 11.231 C 302.077 11.150,302.000 11.023,302.000 10.571 C 302.000 9.978,301.660 9.667,301.011 9.667 C 300.699 9.667,300.667 9.567,300.667 8.617 C 300.667 7.455,300.497 7.167,299.810 7.167 C 299.403 7.167,299.348 7.099,299.302 6.542 C 299.253 5.951,299.216 5.914,298.625 5.865 C 298.038 5.816,298.000 5.779,298.000 5.258 C 298.000 4.695,297.786 4.500,297.172 4.500 C 296.959 4.500,296.838 4.328,296.761 3.917 C 296.657 3.360,296.619 3.333,295.951 3.331 C 295.065 3.328,294.477 3.033,294.199 2.453 C 294.003 2.045,293.895 2.000,293.103 2.000 C 292.199 2.000,291.705 1.689,291.447 0.958 C 291.357 0.704,291.106 0.667,289.505 0.667 C 287.778 0.667,287.667 0.647,287.667 0.333 C 287.667 0.002,287.556 0.000,272.083 0.000 L 256.500 0.000 256.500 32.417 M308.500 32.417 L 308.500 64.833 330.583 64.833 L 352.667 64.833 352.667 61.871 L 352.667 58.908 353.333 58.971 C 353.962 59.031,354.000 59.066,354.000 59.580 C 354.000 60.189,354.338 60.333,355.761 60.333 C 356.471 60.333,356.480 60.341,356.532 60.958 C 356.581 61.549,356.617 61.586,357.208 61.635 C 357.617 61.669,357.833 61.770,357.833 61.927 C 357.833 62.481,358.468 62.833,359.466 62.833 C 360.411 62.833,360.434 62.845,360.591 63.375 C 360.789 64.049,361.077 64.120,363.708 64.147 C 365.549 64.165,365.667 64.187,365.667 64.500 C 365.667 64.829,365.778 64.833,374.667 64.833 C 383.556 64.833,383.667 64.829,383.667 64.500 C 383.667 64.186,383.778 64.167,385.566 64.167 C 387.607 64.167,387.667 64.140,387.667 63.236 C 387.667 62.846,387.707 62.833,388.899 62.833 C 390.180 62.833,390.333 62.745,390.333 62.010 C 390.333 61.768,390.520 61.696,391.340 61.622 C 392.475 61.519,392.833 61.305,392.833 60.730 C 392.833 60.407,392.920 60.333,393.300 60.333 C 393.889 60.333,394.167 60.059,394.167 59.477 C 394.167 59.069,394.234 59.015,394.792 58.968 C 395.383 58.919,395.419 58.883,395.468 58.292 C 395.517 57.705,395.554 57.667,396.076 57.667 C 396.660 57.667,396.833 57.456,396.833 56.747 C 396.833 56.426,396.932 56.345,397.375 56.302 L 397.917 56.250 398.000 55.000 C 398.081 53.778,398.094 53.749,398.550 53.696 C 399.214 53.620,399.333 53.157,399.333 50.656 C 399.333 48.611,399.351 48.500,399.667 48.500 C 399.990 48.500,400.000 48.389,400.000 44.750 C 400.000 41.186,399.984 41.000,399.686 41.000 C 399.396 41.000,399.366 40.820,399.308 38.689 C 399.240 36.215,399.119 35.833,398.403 35.833 C 398.033 35.833,398.012 35.770,397.965 34.542 L 397.917 33.250 397.395 33.199 C 396.928 33.154,396.862 33.079,396.768 32.491 C 396.669 31.871,396.629 31.833,396.081 31.833 C 395.578 31.833,395.500 31.780,395.500 31.430 C 395.500 30.707,395.330 30.500,394.732 30.500 C 394.272 30.500,394.167 30.436,394.167 30.156 C 394.167 29.416,393.871 29.167,392.994 29.167 C 392.122 29.167,391.589 28.836,391.472 28.223 C 391.422 27.965,391.224 27.909,390.207 27.868 C 389.155 27.825,389.000 27.778,389.000 27.506 C 389.000 26.701,388.911 26.667,386.827 26.667 C 384.980 26.667,384.849 26.645,384.746 26.322 C 384.469 25.447,383.896 25.335,379.708 25.334 L 375.833 25.333 375.833 24.829 C 375.833 24.138,375.391 24.000,373.182 24.000 C 371.272 24.000,370.951 23.876,370.807 23.083 C 370.762 22.832,370.593 22.737,370.124 22.698 C 369.563 22.652,369.500 22.599,369.500 22.177 C 369.500 21.398,369.045 20.518,368.582 20.402 C 368.181 20.301,368.167 20.250,368.167 18.903 L 368.167 17.510 368.708 17.371 C 369.235 17.236,369.254 17.200,369.402 16.041 L 369.555 14.850 370.152 14.800 C 370.692 14.755,370.755 14.698,370.802 14.208 L 370.854 13.667 371.830 13.667 C 373.156 13.667,373.333 13.576,373.333 12.899 L 373.333 12.333 377.250 12.333 L 381.167 12.333 381.167 12.837 C 381.167 13.454,381.613 13.667,382.909 13.667 C 383.738 13.667,383.805 13.697,383.912 14.123 C 384.066 14.736,384.254 14.828,385.357 14.831 C 386.328 14.833,386.500 14.959,386.500 15.662 C 386.500 16.110,386.810 16.167,389.264 16.167 L 391.500 16.167 391.500 15.500 L 391.500 14.833 392.167 14.833 C 392.815 14.833,392.833 14.818,392.833 14.260 C 392.833 13.718,392.867 13.684,393.458 13.635 C 394.047 13.586,394.086 13.548,394.134 12.968 C 394.183 12.390,394.223 12.349,394.801 12.301 C 395.379 12.253,395.420 12.213,395.468 11.634 C 395.516 11.056,395.556 11.016,396.134 10.968 C 396.715 10.920,396.753 10.881,396.802 10.292 C 396.851 9.701,396.885 9.667,397.427 9.667 L 398.000 9.667 398.000 7.750 L 398.000 5.833 397.435 5.833 C 396.923 5.833,396.860 5.780,396.762 5.256 C 396.669 4.761,396.573 4.664,396.077 4.571 C 395.607 4.483,395.475 4.365,395.365 3.940 C 395.234 3.434,395.191 3.412,394.041 3.277 C 392.863 3.138,392.852 3.133,392.801 2.610 L 392.750 2.083 391.542 2.034 C 390.456 1.990,390.333 1.951,390.333 1.648 C 390.333 0.763,390.120 0.667,388.161 0.667 C 386.444 0.667,386.333 0.646,386.333 0.333 C 386.333 0.004,386.222 0.000,377.333 0.000 C 368.659 0.000,368.333 0.011,368.333 0.311 C 368.333 0.589,368.154 0.631,366.673 0.702 C 364.941 0.785,364.557 0.934,364.468 1.554 C 364.423 1.870,364.299 1.922,363.500 1.960 C 362.162 2.023,361.833 2.127,361.833 2.490 C 361.833 3.121,361.642 3.333,361.073 3.333 C 360.569 3.333,360.505 3.389,360.407 3.907 C 360.315 4.402,360.227 4.488,359.775 4.532 C 359.300 4.579,359.245 4.642,359.198 5.208 C 359.148 5.816,359.128 5.833,358.490 5.833 C 357.837 5.833,357.833 5.837,357.833 6.490 C 357.833 7.128,357.816 7.148,357.208 7.198 C 356.590 7.249,356.583 7.259,356.533 8.033 C 356.495 8.629,356.407 8.840,356.166 8.917 C 355.993 8.972,355.806 9.156,355.752 9.326 C 355.698 9.497,355.544 9.678,355.410 9.729 C 355.227 9.800,355.167 10.126,355.167 11.044 L 355.167 12.264 354.625 12.424 C 354.100 12.578,354.079 12.619,353.951 13.750 C 353.730 15.688,353.877 26.376,354.125 26.458 C 354.240 26.497,354.333 26.632,354.333 26.760 C 354.333 26.888,354.510 27.108,354.726 27.250 C 355.057 27.467,355.134 27.691,355.218 28.685 C 355.327 29.987,355.513 30.333,356.104 30.333 C 356.445 30.333,356.500 30.414,356.500 30.911 C 356.500 31.523,356.832 31.833,357.489 31.833 C 357.771 31.833,357.833 31.938,357.833 32.417 C 357.833 32.986,357.849 33.000,358.500 33.000 L 359.167 33.000 359.167 33.667 L 359.167 34.333 359.833 34.333 C 360.464 34.333,360.500 34.360,360.500 34.837 C 360.500 35.446,360.946 35.667,362.178 35.667 C 362.919 35.667,363.000 35.704,363.003 36.042 C 363.008 36.802,363.203 36.886,365.153 36.967 C 366.935 37.040,367.000 37.056,367.000 37.418 C 367.000 38.158,367.349 38.245,370.604 38.309 L 373.659 38.370 374.258 38.935 L 374.857 39.500 378.012 39.500 L 381.167 39.500 381.167 39.967 C 381.167 40.675,381.446 40.833,382.700 40.833 L 383.833 40.833 383.833 41.392 C 383.833 42.282,384.151 42.990,384.600 43.102 C 385.567 43.345,385.100 48.667,384.112 48.667 C 383.898 48.667,383.833 48.821,383.833 49.333 C 383.833 49.986,383.821 50.000,383.243 50.000 C 382.655 50.000,382.457 50.103,381.776 50.766 C 381.327 51.203,377.678 51.369,371.898 51.215 L 368.221 51.116 368.069 50.600 C 367.917 50.086,367.910 50.083,366.625 50.035 C 365.510 49.993,365.333 49.945,365.333 49.685 C 365.333 49.190,364.726 48.790,363.844 48.705 C 363.031 48.627,363.017 48.616,362.967 48.021 L 362.917 47.417 360.750 47.369 C 357.976 47.307,357.833 47.342,357.833 48.087 C 357.833 48.635,357.802 48.667,357.268 48.667 C 356.670 48.667,356.500 48.873,356.500 49.597 C 356.500 49.945,356.422 50.000,355.924 50.000 C 355.399 50.000,355.339 50.051,355.240 50.579 C 355.147 51.074,355.049 51.174,354.566 51.264 C 354.076 51.356,354.000 51.436,354.000 51.857 C 354.000 52.350,353.948 52.392,353.125 52.573 C 352.712 52.663,352.666 52.628,352.664 52.212 C 352.658 51.184,353.676 51.254,338.173 51.206 L 324.000 51.161 324.000 44.747 L 324.000 38.333 336.125 38.331 C 342.794 38.329,348.345 38.268,348.460 38.195 C 348.625 38.090,348.661 36.686,348.627 31.739 L 348.583 25.417 336.292 25.374 L 324.000 25.331 324.000 19.499 L 324.000 13.667 338.071 13.667 C 350.641 13.667,352.171 13.639,352.405 13.405 C 352.634 13.176,352.667 12.323,352.667 6.571 L 352.667 0.000 330.583 0.000 L 308.500 0.000 308.500 32.417 M284.913 14.285 C 285.178 14.705,285.366 14.822,285.792 14.827 C 286.226 14.832,286.333 14.902,286.333 15.178 C 286.333 15.792,286.648 16.167,287.162 16.167 C 287.602 16.167,287.651 16.225,287.698 16.792 C 287.747 17.383,287.784 17.419,288.375 17.468 L 289.000 17.520 289.000 20.093 L 289.000 22.667 288.597 22.667 C 287.880 22.667,287.667 22.838,287.667 23.416 C 287.667 23.907,287.608 23.974,287.093 24.070 C 286.597 24.164,286.513 24.250,286.468 24.714 C 286.423 25.186,286.347 25.260,285.833 25.333 C 285.297 25.410,285.246 25.467,285.198 26.042 L 285.147 26.667 277.990 26.667 L 270.833 26.667 270.833 20.165 L 270.833 13.663 277.705 13.706 L 284.577 13.750 284.913 14.285 M12.434 21.764 C 12.379 21.909,12.333 22.171,12.333 22.347 C 12.333 22.567,12.216 22.667,11.958 22.669 C 11.055 22.675,11.087 22.414,11.040 30.202 C 10.991 38.505,11.039 38.954,12.000 39.282 C 12.438 39.432,17.479 39.484,32.288 39.491 L 51.993 39.500 51.799 39.075 C 51.651 38.749,51.654 38.518,51.812 38.078 C 51.968 37.649,52.012 35.560,51.989 29.688 C 51.972 25.388,52.009 21.786,52.072 21.685 C 52.155 21.550,46.831 21.500,32.361 21.500 C 14.437 21.500,12.526 21.525,12.434 21.764 M188.597 25.333 L 189.000 25.333 189.000 27.406 C 189.000 29.894,189.125 30.333,189.829 30.333 L 190.333 30.333 190.333 31.667 L 190.333 33.000 190.893 33.000 L 191.453 33.000 191.543 35.208 C 191.646 37.755,191.709 37.983,192.342 38.110 C 192.800 38.202,192.810 38.228,192.863 39.519 L 192.917 40.834 187.708 40.834 L 182.500 40.833 182.500 39.588 L 182.500 38.343 183.036 38.204 C 183.697 38.033,183.795 37.731,183.817 35.792 C 183.832 34.471,183.864 34.333,184.153 34.333 C 184.958 34.333,185.000 34.234,185.000 32.316 C 185.000 30.592,185.017 30.500,185.344 30.500 C 186.237 30.500,186.333 30.288,186.333 28.338 L 186.333 26.520 186.958 26.468 C 187.552 26.419,187.586 26.385,187.636 25.778 C 187.676 25.287,187.747 25.162,187.941 25.236 C 188.080 25.290,188.375 25.333,188.597 25.333 M0.000 56.750 L 0.000 64.833 31.064 64.833 L 62.129 64.833 62.219 64.292 C 62.269 63.994,62.301 60.356,62.291 56.208 L 62.272 48.667 31.136 48.667 L 0.000 48.667 0.000 56.750 " stroke="none" fill="#040404" fill-rule="evenodd">
          </path>
          <path id="path4" d="M39.015 7.292 C 39.023 11.302,39.088 14.958,39.159 15.417 C 39.388 16.884,39.379 17.243,39.353 7.375 C 39.340 2.582,39.275 0.000,39.167 0.000 C 39.058 0.000,39.005 2.532,39.015 7.292 M53.393 21.750 C 53.341 21.888,53.287 25.589,53.274 29.975 C 53.255 36.316,53.205 38.003,53.030 38.214 C 52.791 38.502,52.818 39.179,53.075 39.364 C 53.265 39.500,53.500 39.380,53.500 39.147 C 53.500 39.055,53.430 39.024,53.344 39.077 C 53.258 39.130,53.277 38.928,53.386 38.628 C 53.526 38.242,53.595 35.724,53.623 30.000 C 53.645 25.554,53.664 21.861,53.665 21.792 C 53.666 21.724,62.235 21.649,72.708 21.625 L 91.750 21.582 72.620 21.541 C 55.732 21.505,53.478 21.529,53.393 21.750 M92.167 21.600 C 92.167 21.650,92.279 21.803,92.417 21.940 C 92.633 22.157,92.667 22.158,92.667 21.946 C 92.667 21.812,92.554 21.659,92.417 21.606 C 92.279 21.554,92.167 21.551,92.167 21.600 M63.500 56.750 C 63.500 63.824,63.531 64.833,63.750 64.833 C 63.969 64.833,64.000 63.824,64.000 56.750 C 64.000 49.676,63.969 48.667,63.750 48.667 C 63.531 48.667,63.500 49.676,63.500 56.750 M104.409 57.083 C 104.409 60.383,104.431 61.757,104.458 60.136 C 104.485 58.515,104.485 55.815,104.458 54.136 C 104.431 52.457,104.409 53.783,104.409 57.083 " stroke="none" fill="#c0e010" fill-rule="evenodd"></path></g>
      </symbol>

      <symbol viewBox="0 0 15 13" id="mail">
        <g>
          <path d="M12.6109 12.3004H2.25782C1.37781 12.3004 0.665039 11.5806 0.665039 10.692V2.64992C0.665039 1.76127 1.37781 1.0415 2.25782 1.0415H12.6109C13.4909 1.0415 14.2037 1.76127 14.2037 2.64992V10.692C14.2037 11.5806 13.4909 12.3004 12.6109 12.3004Z" stroke="#14171C" stroke-width="1.5" stroke-miterlimit="10"/>
          <path d="M0.665039 2.6499L7.43435 6.67093L14.2037 2.6499" stroke="#14171C" stroke-width="1.5" stroke-miterlimit="10"/>
        </g>
      </symbol>

      <symbol viewBox="0 0 17 17" id="phone">
        <g>
          <path d="M15.6055 12.7247L12.2242 10.369C11.7478 10.0397 11.0509 10.1591 10.7203 10.6223L9.84206 11.8852C9.78873 11.9612 9.74607 12.048 9.71762 12.1385C9.60385 12.2145 9.40118 12.3049 9.10252 12.3049C8.61186 12.3049 7.77277 12.0516 6.57812 10.8358C4.59416 8.81663 4.57993 7.93008 4.8466 7.24979C4.91059 7.22084 4.97104 7.18465 5.02437 7.14123L6.23679 6.20764C6.69901 5.85302 6.79145 5.16187 6.43946 4.66612L4.01461 1.30447C3.53106 0.631411 2.9373 0.555421 2.31509 1.09821C1.9382 1.43112 1.31244 2.22358 1.05644 2.69762C0.910665 2.95816 0.846666 3.22955 0.871555 3.50094C-0.269758 8.04587 3.10796 11.7983 4.17461 12.8477C7.09011 15.7173 9.79584 16.3035 11.5558 16.3035C12.5549 16.3035 13.2767 16.1225 13.5967 15.985C13.8455 15.9923 14.098 15.9271 14.3398 15.7788C14.802 15.5001 15.5593 14.8416 15.8686 14.4471C16.1246 14.1251 16.2277 13.8247 16.1815 13.528C16.1388 13.2277 15.9504 12.9635 15.6055 12.7247ZM15.314 13.9984C15.058 14.3241 14.3611 14.9356 13.9735 15.1672C13.8313 15.2541 13.6962 15.2903 13.5682 15.2758C13.4971 15.2686 13.4296 15.283 13.3656 15.3156C13.2162 15.3952 12.5656 15.6159 11.5523 15.6159C9.92384 15.6159 7.41011 15.0478 4.66527 12.3447C3.66973 11.3605 0.491117 7.82152 1.57554 3.62036C1.58621 3.57331 1.58976 3.52265 1.58265 3.47561C1.56488 3.33811 1.59332 3.2006 1.6751 3.05224C1.89198 2.6542 2.46797 1.91962 2.7773 1.64823C2.90885 1.53244 3.02974 1.4673 3.11152 1.4673C3.22529 1.4673 3.35684 1.61566 3.44573 1.7387L5.86702 5.10035C5.99147 5.27766 5.96658 5.51649 5.81013 5.6359L4.59416 6.57311C4.57282 6.59121 4.54438 6.60206 4.50171 6.61292C4.39505 6.63825 4.30616 6.71424 4.2635 6.81194C3.74795 7.95179 3.87239 9.10974 6.08035 11.3533C7.17544 12.4678 8.19587 13.0359 9.10608 13.0359C9.71762 13.0359 10.0981 12.779 10.2723 12.627C10.3363 12.5691 10.3789 12.4931 10.3896 12.4063C10.3967 12.3665 10.4074 12.3339 10.4252 12.3086L11.2998 11.0457C11.41 10.8901 11.6554 10.8539 11.8225 10.9697L15.2037 13.3218C15.3709 13.4376 15.4669 13.5461 15.4775 13.6366C15.4917 13.7198 15.4349 13.8501 15.314 13.9984Z" fill="#424242" stroke="#100F0F" stroke-width="0.5"/>
        </g>
      </symbol>

      <symbol viewBox="0 0 12 10" id="yes">
        <g>
          <path d="M1 5L5 9L10.5 1.5" stroke="#100F0F" stroke-width="1.5" fill="none" stroke-linecap="round" stroke-linejoin="round"/>
        </g>
      </symbol>

      <symbol viewBox="0 0 19 19" id="checkbox-off">
        <g>
          <rect x="0.5" y="0.5" width="18" height="18" rx="1.5" fill="none" stroke="#A1A1A1"/>
        </g>
      </symbol>

      <symbol viewBox="0 0 19 19" id="checkbox-on">
        <g>
          <rect x="0.5" y="0.5" width="18" height="18" rx="1.5" fill="green" stroke="#A1A1A1"/>
        </g>
      </symbol>

</svg>

